Exact Audio Copy V0.99 prebeta 1 from 25. May 2007

EAC 抓取日志文件从28. 十二月 2010, 0:28

苏小明 / 20世纪中华歌坛名人百集珍藏版

使用驱动器  ：BENQ    DVD-ROM 16X   Adapter: 0  ID: 1

读取模式     : 保护
使用精确流   : 是
废除音频缓冲 : 是
使用 C2 指针 : 否

读取偏移校正                   : 738
读取 Lead-In 和 Lead-Out       : 否
用静音填充抓取中丢失偏移的采样 : 是
去除首尾静音块                 : 否
已用接口                       : 已安装外部 ASPI 接口

所用输出格式 : 内部 WAV 函数
样本格式     : 44.100 Hz;16 Bit;立体声


被抓轨 CD 的 TOC

     音轨 |   开始   |   长度   | 起始扇区 | 结尾扇区 
    --------------------------------------------------
       1  |  0:00.00 |  2:44.70 |       0  |   12369  
       2  |  2:44.70 |  2:10.62 |   12370  |   22181  
       3  |  4:55.57 |  3:10.05 |   22182  |   36436  
       4  |  8:05.62 |  3:09.60 |   36437  |   50671  
       5  | 11:15.47 |  3:29.03 |   50672  |   66349  
       6  | 14:44.50 |  3:45.00 |   66350  |   83224  
       7  | 18:29.50 |  3:27.22 |   83225  |   98771  
       8  | 21:56.72 |  2:36.48 |   98772  |  110519  
       9  | 24:33.45 |  3:06.30 |  110520  |  124499  
      10  | 27:40.00 |  2:15.70 |  124500  |  134694  
      11  | 29:55.70 |  2:48.70 |  134695  |  147364  
      12  | 32:44.65 |  2:15.37 |  147365  |  157526  
      13  | 35:00.27 |  2:28.48 |  157527  |  168674  
      14  | 37:29.00 |  3:04.40 |  168675  |  182514  
      15  | 40:33.40 |  4:56.69 |  182515  |  204783  
      16  | 45:30.34 |  2:32.53 |  204784  |  216236  
      17  | 48:03.12 |  2:41.33 |  216237  |  228344  
      18  | 50:44.45 |  1:53.70 |  228345  |  236889  
      19  | 52:38.40 |  2:57.00 |  236890  |  250164  


范围状态及错误

已选择范围

     文件名 E:\文件夹\20世纪中华歌坛名人百集珍藏版-苏小明[lwg188原创]\苏小明 - 20世纪中华歌坛名人百集珍藏版.wav

     峰值电平 90.7 %
     范围质量 100.0 %
     复制 CRC F7100FE5
     复制成功

没有错误发生

状态报告结尾
